<?xml version="1.0" encoding="utf-8"?>
<!-- Generator: Adobe Illustrator 27.5.0, SVG Export Plug-In . SVG Version: 6.00 Build 0)  -->
<svg version="1.1" id="Layer_1" xmlns="http://www.w3.org/2000/svg" xmlns:xlink="http://www.w3.org/1999/xlink" x="0px" y="0px"
	 viewBox="0 0 395 400" style="enable-background:new 0 0 395 400;" xml:space="preserve">
<style type="text/css">
	.st0{fill:#FFFFFF;}
	.st1{fill:#40ACE2;}
	.st2{fill:#56EBF0;}
</style>
<g transform="translate(0.000000,400.000000) scale(0.100000,-0.100000)">
	<g>
		
			<image style="overflow:visible;opacity:0.15;" width="144" height="206" xlink:href="9A214CC561D15A73.png"  transform="matrix(10 0 0 -10 760 4270)">
		</image>
		<g>
			<path class="st0" d="M1690,3968c-17-18-172-231-344-473l-314-440l46-50c80-88,515-525,523-525c4,0,73,63,153,141
				c114,110,148,149,155,178c5,20,12,272,15,561c5,414,3,530-7,550c-9,19-35,33-102,57c-50,18-91,33-92,33S1707,3985,1690,3968z"/>
		</g>
	</g>
	<g>
		
			<image style="overflow:visible;opacity:0.15;" width="145" height="205" xlink:href="9A214CC561D15A71.png"  transform="matrix(10 0 0 -10 1750 4250)">
		</image>
		<g>
			<path class="st0" d="M2145,3965c-78-21-103-33-114-52c-6-12-6-217-1-576c7-472,11-561,23-581c15-23,281-279,295-284
				c6-2,256,246,495,494l79,81l-319,443c-175,244-329,451-343,461C2223,3977,2200,3980,2145,3965z"/>
		</g>
	</g>
	<g>
		
			<image style="overflow:visible;opacity:0.15;" width="204" height="145" xlink:href="9A214CC561D15A7E.png"  transform="matrix(10 0 0 -10 -260 3230)">
		</image>
		<g>
			<path class="st0" d="M764,2823c-105-76-268-194-364-263c-95-69-218-157-274-195c-124-87-130-98-96-197c40-119-21-108,624-108
				c421,1,566,4,582,13c25,14,274,300,274,313c-1,5-125,136-278,292l-277,282L764,2823z"/>
		</g>
	</g>
	<g>
		
			<image style="overflow:visible;opacity:0.15;" width="207" height="144" xlink:href="9A214CC561D15A70.png"  transform="matrix(10 0 0 -10 2140 3220)">
		</image>
		<g>
			<path class="st0" d="M2701,2673l-283-278l141-161c97-111,150-165,172-173s207-11,585-11h554l14,23c27,41,61,176,50,195
				c-9,15-275,210-779,574c-77,56-147,103-155,105C2991,2949,2871,2839,2701,2673z"/>
		</g>
	</g>
	<g>
		<path class="st1" d="M1909.6,2509c-116.1-14.6-211.2-63.1-298.1-149.9c-160.9-161.8-195.7-397.7-88.7-601.6
			c82.3-156.3,242.3-258.8,423.3-269.7c238.6-14.6,458.1,142.6,526.7,376.7c21,71.3,21,201.2,0,274.3
			C2402.4,2381.9,2159.2,2541.9,1909.6,2509z M2087.9,2432.2c111.5-29.3,227.7-120.7,280.7-221.3c89.6-168.2,62.2-374.9-67.7-512
			c-91.4-96.9-192.9-140.8-321.8-140.8c-224.9,0-407.8,153.6-446.2,373c-35.7,209.4,103.3,429.7,312.7,496.5
			C1906.9,2447.7,2023.9,2449.5,2087.9,2432.2z"/>
		<path class="st2" d="M1885.8,2253c-184.7-73.1-238.6-293.5-108.8-437c107-118.9,299-117,406,3.7c88.7,101.5,87.8,256.9-3.7,358.4
			C2103.4,2262.1,1985.5,2292.3,1885.8,2253z M2043.1,2135c50.3-22.9,79.5-64.9,84.1-124.3c8.2-95.1-53.9-162.7-149-162.7
			c-96,0-157.3,67.7-149,164.6c5.5,60.3,26.5,91.4,80.5,119.8C1958.1,2157,1993.7,2157.9,2043.1,2135z"/>
	</g>
	<g>
		
			<image style="overflow:visible;opacity:0.15;" width="204" height="144" xlink:href="9A214CC561D15A6A.png"  transform="matrix(10 0 0 -10 -260 2220)">
		</image>
		<g>
			<path class="st0" d="M73,1926c-29-37-69-174-57-194c6-9,83-69,171-132c150-108,340-245,635-458c70-51,132-92,137-92
				c12,0,545,548,549,565c2,7-43,66-99,131s-111,131-122,146c-43,58-46,58-646,58H91L73,1926z"/>
		</g>
	</g>
	<g>
		
			<image style="overflow:visible;opacity:0.15;" width="205" height="146" xlink:href="9A214CC561D15A6B.png"  transform="matrix(10 0 0 -10 2160 2220)">
		</image>
		<g>
			<path class="st0" d="M3100,1940c-223-3-382-9-391-15c-9-5-65-66-124-135c-60-69-117-135-128-147l-20-22l116-123
				c64-68,190-199,279-291l163-168l340,246c187,135,360,261,385,279s80,59,123,90c43,32,82,68,87,81c12,31-31,184-56,202
				C3855,1951,3855,1951,3100,1940z"/>
		</g>
	</g>
	<g>
		
			<image style="overflow:visible;opacity:0.15;" width="145" height="204" xlink:href="9A214CC561D15A6C.png"  transform="matrix(10 0 0 -10 750 1800)">
		</image>
		<g>
			<path class="st0" d="M1311,1244l-282-286l17-26c65-98,604-843,630-869c25-26,40-33,70-33c60,0,154,30,170,55c12,18,13,107,6,584
				l-7,564l-154,148c-84,82-157,149-161,149S1466,1401,1311,1244z"/>
		</g>
	</g>
	<g>
		
			<image style="overflow:visible;opacity:0.15;" width="144" height="207" xlink:href="9A214CC561D15A6D.png"  transform="matrix(10 0 0 -10 1750 1810)">
		</image>
		<g>
			<path class="st0" d="M2218,1405c-167-160-166-159-177-203c-6-21-11-276-12-576l-3-539l23-18c31-25,158-62,187-55
				c15,4,48,41,91,103c38,53,186,261,330,462l261,366l-31,35c-16,19-144,151-284,294l-253,258L2218,1405z"/>
		</g>
	</g>
</g>
</svg>
